<svg viewBox="0 0 1024 1024" xmlns="http://www.w3.org/2000/svg"><rect x="0" y="0" width="1024" height="1024" fill="#A7C39B"/><rect x="232" y="188" width="560" height="752" rx="44" fill="#FBF6EC" stroke="#5A4A42" stroke-width="14"/><g transform="translate(276.0,302.0) scale(2.2500)"><rect x="2" y="2" width="44" height="44" rx="14" fill="#F6EFE1"/><ellipse cx="24" cy="35.5" rx="13" ry="2.6" fill="#5A4A42" opacity=".08"/><path d="M13 20c0-6.5 5-11.5 11-11.5S35 13.5 35 20" fill="none" stroke="#5A4A42" stroke-width="1.6" stroke-linecap="round"/><path d="M11 20h26l-2.4 12.6a3 3 0 0 1-2.95 2.45H16.35a3 3 0 0 1-2.95-2.45z" fill="#D98A6A" stroke="#5A4A42" stroke-width="1.6" stroke-linejoin="round"/><path d="M11 20h26l-.6 3.2H11.6z" fill="#c97a5a"/><circle cx="19" cy="26" r="1.5" fill="#F6EFE1"/><circle cx="24" cy="27.5" r="1.5" fill="#F6EFE1"/><circle cx="29" cy="26" r="1.5" fill="#F6EFE1"/><path d="M18 12.5c1.5-2.2 3.5-3.3 6-3.3s4.5 1.1 6 3.3" fill="none" stroke="#E0B15E" stroke-width="1.4" stroke-linecap="round"/></g><g transform="translate(458.0,302.0) scale(2.2500)"><rect x="2" y="2" width="44" height="44" rx="14" fill="#F6EFE1"/><ellipse cx="24" cy="36" rx="12" ry="2.4" fill="#5A4A42" opacity=".08"/><ellipse cx="23.5" cy="33.5" rx="11.5" ry="2.6" fill="#F1C6A0" stroke="#5A4A42" stroke-width="1.5"/><path d="M14 20h19l-1.6 12.3a2.6 2.6 0 0 1-2.58 2.2H18.18a2.6 2.6 0 0 1-2.58-2.2z" fill="#D98A6A" stroke="#5A4A42" stroke-width="1.6" stroke-linejoin="round"/><path d="M14 20h19l-.5 3H14.5z" fill="#c97a5a"/><path d="M33 21.5c3 0 4.6 1.7 4.6 4s-1.6 4-4.6 4" fill="none" stroke="#5A4A42" stroke-width="1.6" stroke-linecap="round"/><path d="M20 14.5c-1.3-1.6-1-2.8 0-4M25 14.5c-1.3-1.6-1-2.8 0-4" stroke="#5A4A42" stroke-width="1.4" stroke-linecap="round" fill="none" opacity=".6"/></g><g transform="translate(640.0,302.0) scale(2.2500)"><rect x="2" y="2" width="44" height="44" rx="14" fill="#F6EFE1"/><ellipse cx="24" cy="36" rx="12" ry="2.4" fill="#5A4A42" opacity=".08"/><path d="M12.5 24h23v8.5a3 3 0 0 1-3 3h-17a3 3 0 0 1-3-3z" fill="#E8A08A" stroke="#5A4A42" stroke-width="1.6" stroke-linejoin="round"/><path d="M12.5 24c1.8-2.4 3.6-1 5.4 0 1.8 1 3.6 2.4 5.4 0 1.8-2.4 3.6-1 5.4 0 1.8 1 3.6 2.4 5.4 0" fill="none" stroke="#F6EFE1" stroke-width="2" stroke-linecap="round" stroke-linejoin="round"/><path d="M17.5 24v-3.3M24 24v-3.3M30.5 24v-3.3" stroke="#5A4A42" stroke-width="1.4" stroke-linecap="round"/><path d="M24 15.3c1.1 1.5.4 2.4-.2 3.2-.5.7-.9 1.4.2 2.3-1.6-.2-2.5-1.5-1.7-3 .3-.6.7-1.1 1.7-2.5z" fill="#E0B15E" stroke="#5A4A42" stroke-width="1.3" stroke-linejoin="round"/><path d="M18.2 33.5c1.6-1.6 4-1.6 5.8-.3 1.8-1.3 4.2-1.3 5.8.3" stroke="#5A4A42" stroke-width="1.3" stroke-linecap="round" fill="none" opacity=".5"/></g><g transform="translate(276.0,440.0) scale(2.2500)"><rect x="2" y="2" width="44" height="44" rx="14" fill="#F6EFE1"/><ellipse cx="24" cy="37.5" rx="10" ry="2" fill="#5A4A42" opacity=".08"/><path d="M11 22 38 11l-7.5 25-6-7.5z" fill="#8FB3C4" stroke="#5A4A42" stroke-width="1.6" stroke-linejoin="round"/><path d="M24.5 28.5 38 11 18.5 24.5z" fill="#7A9DB0"/><path d="M24.5 28.5 38 11" fill="none" stroke="#5A4A42" stroke-width="1.4" stroke-linecap="round"/></g><g transform="translate(458.0,440.0) scale(2.2500)"><rect x="2" y="2" width="44" height="44" rx="14" fill="#F6EFE1"/><ellipse cx="24" cy="36.5" rx="12" ry="2.2" fill="#5A4A42" opacity=".08"/><path d="M17.5 34 24 22l6.5 12" stroke="#5A4A42" stroke-width="1.5" stroke-linecap="round" stroke-linejoin="round" fill="none"/><circle cx="24" cy="20" r="11.5" fill="none" stroke="#5A4A42" stroke-width="1.6"/><path d="M24 8.5v23M12.5 20h23M15.8 11.8l16.4 16.4M32.2 11.8L15.8 28.2" stroke="#8FB3C4" stroke-width="1.1" opacity=".7"/><circle cx="24" cy="20" r="2" fill="#E0B15E" stroke="#5A4A42" stroke-width="1.3"/><rect x="20.5" y="6.7" width="7" height="5.4" rx="1.6" fill="#8FB3C4" stroke="#5A4A42" stroke-width="1.4" stroke-linejoin="round"/><rect x="30.3" y="15.6" width="6.6" height="5.2" rx="1.5" fill="#E8A08A" stroke="#5A4A42" stroke-width="1.4" stroke-linejoin="round"/><rect x="24.8" y="27.4" width="6.6" height="5.2" rx="1.5" fill="#E0B15E" stroke="#5A4A42" stroke-width="1.4" stroke-linejoin="round"/><rect x="11.1" y="15.6" width="6.6" height="5.2" rx="1.5" fill="#8FA98C" stroke="#5A4A42" stroke-width="1.4" stroke-linejoin="round"/></g><g transform="translate(640.0,440.0) scale(2.2500)"><rect x="2" y="2" width="44" height="44" rx="14" fill="#F6EFE1"/><ellipse cx="24" cy="36" rx="12" ry="2.4" fill="#5A4A42" opacity=".08"/><path d="M17.5 12 30 27" fill="none" stroke="#5A4A42" stroke-width="1.6" stroke-linecap="round"/><path d="M30.5 12 18 27" fill="none" stroke="#5A4A42" stroke-width="1.6" stroke-linecap="round"/><circle cx="15.5" cy="29.5" r="3.6" fill="#8FA98C" stroke="#5A4A42" stroke-width="1.6"/><circle cx="32.5" cy="29.5" r="3.6" fill="#E0B15E" stroke="#5A4A42" stroke-width="1.6"/><path d="M20.5 20.3 27.5 20.3" fill="none" stroke="#5A4A42" stroke-width="1.4" stroke-linecap="round"/></g><g transform="translate(276.0,578.0) scale(2.2500)"><rect x="2" y="2" width="44" height="44" rx="14" fill="#F6EFE1"/><ellipse cx="24" cy="37" rx="11" ry="2.2" fill="#5A4A42" opacity=".08"/><circle cx="24" cy="24" r="12.5" fill="#F1C6A0" stroke="#5A4A42" stroke-width="1.6"/><path d="M23 12.2c1.8-.3 3 .9 2.6 2.5" fill="none" stroke="#5A4A42" stroke-width="1.6" stroke-linecap="round"/><circle cx="19.4" cy="23" r="1.7" fill="#5A4A42"/><circle cx="28.6" cy="23" r="1.7" fill="#5A4A42"/><circle cx="17.6" cy="27.5" r="1.9" fill="#E8A08A" opacity=".65"/><circle cx="30.4" cy="27.5" r="1.9" fill="#E8A08A" opacity=".65"/><path d="M21 28.5c1.6 1.5 4.4 1.5 6 0" fill="none" stroke="#5A4A42" stroke-width="1.5" stroke-linecap="round"/></g><g transform="translate(458.0,578.0) scale(2.2500)"><rect x="2" y="2" width="44" height="44" rx="14" fill="#F6EFE1"/><ellipse cx="24" cy="37.5" rx="11" ry="2.2" fill="#5A4A42" opacity=".08"/><rect x="13" y="21" width="22" height="15" rx="2" fill="#E8A08A" stroke="#5A4A42" stroke-width="1.6" stroke-linejoin="round"/><rect x="13" y="21" width="22" height="6" rx="1.5" fill="#D98A6A" stroke="#5A4A42" stroke-width="1.6" stroke-linejoin="round"/><rect x="22" y="14" width="4" height="22" fill="#E0B15E" stroke="#5A4A42" stroke-width="1.4" stroke-linejoin="round"/><path d="M24 14c-2-4-8-5-9-1-1 3 3 4 9 1z" fill="#E0B15E" stroke="#5A4A42" stroke-width="1.4" stroke-linejoin="round"/><path d="M24 14c2-4 8-5 9-1 1 3-3 4-9 1z" fill="#E0B15E" stroke="#5A4A42" stroke-width="1.4" stroke-linejoin="round"/></g><g transform="translate(640.0,578.0) scale(2.2500)"><rect x="2" y="2" width="44" height="44" rx="14" fill="#F6EFE1"/><ellipse cx="24" cy="36" rx="12" ry="2.4" fill="#5A4A42" opacity=".08"/><path d="M17 24.5c3.6-2.4 9.8-2.4 13.4 0 3 2 4.1 6 2.4 8.8-1.3 2.1-3.8 2.9-6.1 2-1.6-.6-3-.6-4.6 0-2.3.9-4.8.1-6.1-2-1.7-2.8-.6-6.8 2.4-8.8z" fill="#D98A6A" stroke="#5A4A42" stroke-width="1.6" stroke-linejoin="round"/><ellipse cx="16.5" cy="17.5" rx="2.6" ry="3.3" fill="#F1C6A0" stroke="#5A4A42" stroke-width="1.4"/><ellipse cx="22.3" cy="12.8" rx="2.6" ry="3.3" fill="#F1C6A0" stroke="#5A4A42" stroke-width="1.4"/><ellipse cx="25.7" cy="12.8" rx="2.6" ry="3.3" fill="#F1C6A0" stroke="#5A4A42" stroke-width="1.4"/><ellipse cx="31.5" cy="17.5" rx="2.6" ry="3.3" fill="#F1C6A0" stroke="#5A4A42" stroke-width="1.4"/></g><g transform="translate(276.0,716.0) scale(2.2500)"><rect x="2" y="2" width="44" height="44" rx="14" fill="#F6EFE1"/><ellipse cx="24" cy="36" rx="12" ry="2.4" fill="#5A4A42" opacity=".08"/><path d="M11 30v-5.5c0-1 .6-1.9 1.5-2.3l3-1.3 2.4-4a3 3 0 0 1 2.7-1.7h6.8a3 3 0 0 1 2.7 1.7l2.4 4 3 1.3c.9.4 1.5 1.3 1.5 2.3V30" fill="#D98A6A" stroke="#5A4A42" stroke-width="1.6" stroke-linejoin="round"/><path d="M11 30h26" stroke="#5A4A42" stroke-width="1.6" stroke-linecap="round"/><path d="M14 21h20" stroke="#5A4A42" stroke-width="1.4" stroke-linecap="round"/><rect x="19" y="23" width="10" height="4" rx="1.2" fill="#E0B15E" stroke="#5A4A42" stroke-width="1.3"/><circle cx="17" cy="30" r="3" fill="#F6EFE1" stroke="#5A4A42" stroke-width="1.6"/><circle cx="31" cy="30" r="3" fill="#F6EFE1" stroke="#5A4A42" stroke-width="1.6"/></g><circle cx="640" cy="792" r="104" fill="#F6EFE1" fill-opacity="0.4"/><text x="640" y="842" font-family="'Hiragino Maru Gothic ProN','Hiragino Maru Gothic Pro','Rounded Mplus 1c',-apple-system,sans-serif" font-weight="800" text-anchor="middle" font-size="132" fill="#E0B15E" stroke="#5A4A42" stroke-width="5">¥</text><circle cx="640" cy="792" r="104" fill="none" stroke="#5A4A42" stroke-width="17"/><line x1="716" y1="868" x2="800" y2="952" stroke="#5A4A42" stroke-width="46" stroke-linecap="round"/><line x1="716" y1="868" x2="800" y2="952" stroke="#D98A6A" stroke-width="30" stroke-linecap="round"/><rect x="224" y="118" width="576" height="168" rx="30" fill="#5E7D5A" stroke="#42583F" stroke-width="10"/><text x="512" y="182" font-family="'Hiragino Maru Gothic ProN','Hiragino Maru Gothic Pro','Rounded Mplus 1c',-apple-system,sans-serif" font-weight="600" text-anchor="middle" font-size="50" fill="#FBF6EC" letter-spacing="6">ミエッタ</text><text x="512" y="266" font-family="'Hiragino Maru Gothic ProN','Hiragino Maru Gothic Pro','Rounded Mplus 1c',-apple-system,sans-serif" font-weight="800" text-anchor="middle" font-size="92" fill="#FBF6EC">Mietta</text></svg>